<?xml version="1.0" standalone="no"?>
<!DOCTYPE svg PUBLIC "-//W3C//DTD SVG 20010904//EN"
 "http://www.w3.org/TR/2001/REC-SVG-20010904/DTD/svg10.dtd">
<svg version="1.0" xmlns="http://www.w3.org/2000/svg"
 width="225.000000pt" height="225.000000pt" viewBox="0 0 225.000000 225.000000"
 preserveAspectRatio="xMidYMid meet">
<metadata>
Created by potrace 1.14, written by Peter Selinger 2001-2017
</metadata>
<g transform="translate(0.000000,225.000000) scale(0.100000,-0.100000)"
fill="#000000" stroke="none">
<path d="M0 1125 l0 -1125 1125 0 1125 0 0 1125 0 1125 -1125 0 -1125 0 0
-1125z m150 1080 c0 -8 7 -15 15 -15 12 0 15 -18 15 -105 0 -87 -3 -105 -15
-105 -8 0 -15 5 -15 10 0 6 -18 10 -39 10 -38 0 -68 19 -43 28 8 2 12 33 12
92 l0 89 28 4 c15 2 30 5 35 6 4 0 7 -6 7 -14z m2040 0 c0 -8 6 -15 13 -15 9
0 11 -187 9 -912 -4 -918 -5 -938 -36 -938 -3 0 -6 374 -6 830 l0 830 -130 0
c-109 0 -130 2 -130 15 0 8 5 15 10 15 6 0 10 22 10 49 0 39 -6 55 -27 80
l-27 31 -624 0 c-527 0 -626 -2 -638 -14 -21 -22 -21 -1540 0 -1562 12 -12
112 -14 644 -14 495 0 631 3 635 13 2 6 7 9 11 5 4 -3 -1 -16 -11 -27 -17 -21
-20 -21 -645 -21 -440 0 -628 3 -628 11 0 14 -25 39 -39 39 -8 0 -11 206 -11
690 l0 690 -45 0 c-33 0 -45 4 -45 15 0 8 5 15 10 15 6 0 10 37 10 90 l0 90
838 3 c460 1 840 3 845 5 4 1 7 -5 7 -13z m-1800 -110 c0 -38 3 -45 20 -45 11
0 20 -4 20 -10 0 -6 -45 -10 -115 -10 l-115 0 0 55 0 55 95 0 95 0 0 -45z
m-330 -100 c0 -8 -4 -15 -10 -15 -5 0 -10 7 -10 15 0 8 5 15 10 15 6 0 10 -7
10 -15z m420 -6 c0 -5 -4 -9 -10 -9 -5 0 -10 7 -10 16 0 8 5 12 10 9 6 -3 10
-10 10 -16z m-90 -114 c0 -28 4 -35 20 -35 31 0 23 -17 -11 -24 -17 -3 -69 -6
-115 -6 l-84 0 0 50 0 50 95 0 95 0 0 -35z m490 -190 c0 -24 -5 -35 -15 -35
-10 0 -15 11 -15 35 0 24 5 35 15 35 10 0 15 -11 15 -35z m-450 -70 l0 -35
-115 0 -115 0 0 35 0 35 115 0 115 0 0 -35z m1220 -90 c0 -11 -12 -15 -44 -15
-43 0 -63 10 -49 24 3 3 26 6 50 6 32 0 43 -4 43 -15z m-1430 -95 c0 -5 -4
-10 -10 -10 -5 0 -10 5 -10 10 0 6 5 10 10 10 6 0 10 -4 10 -10z m210 0 c0 -5
-4 -10 -10 -10 -5 0 -10 5 -10 10 0 6 5 10 10 10 6 0 10 -4 10 -10z m1200 -19
c0 -43 -17 -47 -22 -6 -3 24 0 35 9 35 8 0 13 -12 13 -29z m-1410 -191 c0 -5
-4 -10 -10 -10 -5 0 -10 5 -10 10 0 6 5 10 10 10 6 0 10 -4 10 -10z m210 0 c0
-5 -4 -10 -10 -10 -5 0 -10 5 -10 10 0 6 5 10 10 10 6 0 10 -4 10 -10z m1195
-109 c3 -5 1 -12 -5 -16 -5 -3 -10 1 -10 9 0 18 6 21 15 7z m-655 -31 c0 -5
-11 -10 -25 -10 -14 0 -25 5 -25 10 0 6 11 10 25 10 14 0 25 -4 25 -10z m260
0 c0 -5 -4 -10 -10 -10 -5 0 -10 5 -10 10 0 6 5 10 10 10 6 0 10 -4 10 -10z
m-30 -20 c0 -5 -5 -10 -11 -10 -5 0 -7 5 -4 10 3 6 8 10 11 10 2 0 4 -4 4 -10z
m430 -50 c0 -16 -4 -32 -10 -35 -6 -4 -10 10 -10 35 0 25 4 39 10 35 6 -3 10
-19 10 -35z m-450 24 c0 -10 -28 -34 -39 -34 -6 0 -11 5 -11 10 0 6 7 10 15
10 8 0 15 5 15 10 0 6 5 10 10 10 6 0 10 -3 10 -6z m-960 -24 c0 -5 -4 -10
-10 -10 -5 0 -10 5 -10 10 0 6 5 10 10 10 6 0 10 -4 10 -10z m210 0 c0 -5 -4
-10 -10 -10 -5 0 -10 5 -10 10 0 6 5 10 10 10 6 0 10 -4 10 -10z m380 -20 c0
-5 -11 -10 -25 -10 -14 0 -25 5 -25 10 0 6 11 10 25 10 14 0 25 -4 25 -10z
m580 -35 c0 -14 -4 -25 -10 -25 -11 0 -14 33 -3 43 11 11 13 8 13 -18z m-490
5 c0 -5 -4 -10 -10 -10 -5 0 -10 5 -10 10 0 6 5 10 10 10 6 0 10 -4 10 -10z
m90 0 c0 -5 -16 -10 -35 -10 -19 0 -35 5 -35 10 0 6 16 10 35 10 19 0 35 -4
35 -10z m50 0 c0 -5 -4 -10 -10 -10 -5 0 -10 5 -10 10 0 6 5 10 10 10 6 0 10
-4 10 -10z m585 -20 c3 -5 1 -10 -4 -10 -6 0 -11 5 -11 10 0 6 2 10 4 10 3 0
8 -4 11 -10z m-1405 -140 c0 -5 -4 -10 -10 -10 -5 0 -10 5 -10 10 0 6 5 10 10
10 6 0 10 -4 10 -10z m210 0 c0 -5 -4 -10 -10 -10 -5 0 -10 5 -10 10 0 6 5 10
10 10 6 0 10 -4 10 -10z m1220 -90 c0 -5 -23 -10 -51 -10 -31 0 -48 4 -44 10
3 6 26 10 51 10 24 0 44 -4 44 -10z m-1430 -125 c0 -8 -4 -15 -10 -15 -5 0
-10 7 -10 15 0 8 5 15 10 15 6 0 10 -7 10 -15z m210 6 c0 -6 -4 -13 -10 -16
-5 -3 -10 1 -10 9 0 9 5 16 10 16 6 0 10 -4 10 -9z m-210 -216 c0 -8 -4 -15
-10 -15 -5 0 -10 7 -10 15 0 8 5 15 10 15 6 0 10 -7 10 -15z m210 -6 c0 -5 -4
-9 -10 -9 -5 0 -10 7 -10 16 0 8 5 12 10 9 6 -3 10 -10 10 -16z m-180 -264 c0
-33 -4 -45 -15 -45 -8 0 -15 -4 -15 -10 0 -5 -9 -10 -20 -10 -11 0 -20 5 -20
10 0 6 -7 10 -15 10 -11 0 -15 12 -15 45 l0 45 50 0 50 0 0 -45z m140 0 c0
-33 -4 -45 -15 -45 -8 0 -15 -4 -15 -10 0 -5 -9 -10 -20 -10 -11 0 -20 5 -20
10 0 6 -7 10 -15 10 -11 0 -15 12 -15 45 l0 45 50 0 50 0 0 -45z m140 0 c0
-33 -4 -45 -15 -45 -8 0 -15 -4 -15 -10 0 -5 -9 -10 -20 -10 -11 0 -20 5 -20
10 0 6 -7 10 -15 10 -11 0 -15 12 -15 45 l0 45 50 0 50 0 0 -45z m140 0 c0
-33 -4 -45 -15 -45 -8 0 -15 -4 -15 -10 0 -5 -9 -10 -20 -10 -11 0 -20 5 -20
10 0 6 -7 10 -15 10 -11 0 -15 12 -15 45 l0 45 50 0 50 0 0 -45z m140 0 c0
-33 -4 -45 -15 -45 -8 0 -15 -4 -15 -10 0 -5 -9 -10 -20 -10 -11 0 -20 5 -20
10 0 6 -7 10 -15 10 -11 0 -15 12 -15 45 l0 45 50 0 50 0 0 -45z m140 0 c0
-33 -4 -45 -15 -45 -8 0 -15 -4 -15 -10 0 -5 -9 -10 -20 -10 -11 0 -20 5 -20
10 0 6 -7 10 -15 10 -11 0 -15 12 -15 45 l0 45 50 0 50 0 0 -45z m140 0 c0
-33 -4 -45 -15 -45 -8 0 -15 -4 -15 -10 0 -5 -9 -10 -20 -10 -11 0 -20 5 -20
10 0 6 -7 10 -15 10 -11 0 -15 12 -15 45 l0 45 50 0 50 0 0 -45z m140 0 c0
-33 -4 -45 -15 -45 -8 0 -15 -4 -15 -10 0 -5 -9 -10 -20 -10 -11 0 -20 5 -20
10 0 6 -7 10 -15 10 -11 0 -15 12 -15 45 l0 45 50 0 50 0 0 -45z m141 23 c0
-13 2 -31 4 -42 2 -11 -3 -20 -16 -23 -10 -3 -19 -9 -19 -14 0 -5 -9 -9 -20
-9 -11 0 -20 5 -20 10 0 6 -7 10 -15 10 -11 0 -15 12 -15 45 l0 45 50 0 c45 0
50 -2 51 -22z m143 -9 c10 -50 7 -59 -14 -59 -11 0 -20 -4 -20 -10 0 -5 -9
-10 -20 -10 -11 0 -20 5 -20 10 0 6 -7 10 -15 10 -12 0 -15 10 -13 45 l3 45
46 0 c44 0 47 -2 53 -31z m138 4 c5 -40 -1 -63 -18 -63 -8 0 -14 -4 -14 -10 0
-5 -9 -10 -20 -10 -11 0 -20 5 -20 10 0 6 -7 10 -15 10 -16 0 -18 12 -9 59 6
29 9 31 49 31 39 0 43 -2 47 -27z m142 -4 c10 -50 7 -59 -14 -59 -11 0 -20 -4
-20 -10 0 -5 -7 -10 -15 -10 -8 0 -15 5 -15 10 0 6 -9 10 -20 10 -21 0 -24 9
-14 59 6 29 9 31 49 31 40 0 43 -2 49 -31z m140 0 c10 -50 7 -59 -14 -59 -11
0 -20 -4 -20 -10 0 -5 -7 -10 -15 -10 -8 0 -15 5 -15 10 0 6 -9 10 -20 10 -21
0 -24 9 -14 59 6 29 9 31 49 31 40 0 43 -2 49 -31z m140 0 c9 -47 7 -59 -9
-59 -8 0 -15 -4 -15 -10 0 -5 -9 -10 -20 -10 -11 0 -20 5 -20 10 0 6 -8 10
-18 10 -14 0 -17 7 -14 45 l4 45 43 0 c40 0 43 -2 49 -31z"/>
</g>
</svg>
